<svg width="44" height="44" viewBox="0 0 44 44" fill="none" xmlns="http://www.w3.org/2000/svg">
<g clip-path="url(#clip0_0_1343)">
<path d="M29 13.0002H22.472C22.3173 13.0013 22.1645 12.9671 22.025 12.9002L18.869 11.3162C18.4524 11.1088 17.9934 11.0006 17.528 11.0002H15C13.6744 11.0018 12.4036 11.5291 11.4662 12.4665C10.5289 13.4038 10.0016 14.6746 10 16.0002V28.0002C10.0016 29.3258 10.5289 30.5967 11.4662 31.534C12.4036 32.4714 13.6744 32.9987 15 33.0002H29C30.3256 32.9987 31.5964 32.4714 32.5338 31.534C33.4711 30.5967 33.9984 29.3258 34 28.0002V18.0002C33.9984 16.6746 33.4711 15.4038 32.5338 14.4665C31.5964 13.5291 30.3256 13.0018 29 13.0002ZM15 13.0002H17.528C17.6827 12.9992 17.8355 13.0334 17.975 13.1002L21.131 14.6792C21.5472 14.8884 22.0062 14.9983 22.472 15.0002H29C29.598 15.0012 30.1821 15.1809 30.6773 15.5163C31.1725 15.8516 31.5561 16.3273 31.779 16.8822L12 16.9942V16.0002C12 15.2046 12.3161 14.4415 12.8787 13.8789C13.4413 13.3163 14.2044 13.0002 15 13.0002ZM29 31.0002H15C14.2044 31.0002 13.4413 30.6842 12.8787 30.1216C12.3161 29.559 12 28.7959 12 28.0002V18.9942L32 18.8812V28.0002C32 28.7959 31.6839 29.559 31.1213 30.1216C30.5587 30.6842 29.7956 31.0002 29 31.0002Z" fill="#91F2CF"/>
</g>
<rect x="1" y="1" width="42" height="42" rx="8" stroke="#91F2CF" stroke-width="2"/>
<defs>
<clipPath id="clip0_0_1343">
<rect width="24" height="24" fill="white" transform="translate(10 10)"/>
</clipPath>
</defs>
</svg>
