<svg width="18" height="17" viewBox="0 0 18 17" fill="none" xmlns="http://www.w3.org/2000/svg">
<path d="M0.106689 2.18086C0.106689 1.63816 0.297276 1.19045 0.678434 0.837711C1.05959 0.484961 1.55511 0.308594 2.16497 0.308594C2.76394 0.308594 3.24856 0.482242 3.61883 0.829571C3.99999 1.18774 4.19058 1.65444 4.19058 2.2297C4.19058 2.75068 4.00545 3.18481 3.63517 3.53214C3.25401 3.89031 2.75305 4.0694 2.1323 4.0694H2.11596C1.51699 4.0694 1.03238 3.89031 0.662098 3.53214C0.29182 3.17397 0.106689 2.72354 0.106689 2.18086ZM0.319052 16.4263V5.55093H3.94554V16.4263H0.319052ZM5.95482 16.4263H9.58131V10.3537C9.58131 9.9738 9.62488 9.68075 9.71199 9.47454C9.86445 9.10551 10.0959 8.79346 10.4063 8.53841C10.7166 8.28334 11.106 8.15582 11.5742 8.15582C12.794 8.15582 13.4038 8.97526 13.4038 10.6142V16.4263H17.0303V10.1909C17.0303 8.58453 16.6492 7.36621 15.8868 6.5359C15.1245 5.70559 14.1172 5.29044 12.8648 5.29044C11.4599 5.29044 10.3654 5.89282 9.58131 7.09758V7.13014H9.56497L9.58131 7.09758V5.55093H5.95482C5.97659 5.89824 5.98749 6.97818 5.98749 8.79076C5.98749 10.6033 5.97659 13.1485 5.95482 16.4263Z" fill="#090F1D"/>
</svg>
