<svg width="44" height="44" viewBox="0 0 44 44" fill="none" xmlns="http://www.w3.org/2000/svg">
<g clip-path="url(#clip0_0_1329)">
<path d="M17.5051 33.9995C15.6948 33.9984 13.9461 33.3425 12.5816 32.153C11.217 30.9634 10.3287 29.3205 10.0807 27.5273C9.83259 25.7341 10.2415 23.9118 11.2318 22.3964C12.2222 20.8811 13.7272 19.7751 15.4691 19.2825C16.7352 18.92 18.0754 18.9034 19.3501 19.2345L27.2581 11.3285C27.6779 10.9058 28.1775 10.5707 28.7278 10.3425C29.2782 10.1144 29.8683 9.9978 30.4641 9.99953C31.4017 10.0003 32.3006 10.3731 32.9636 11.0361C33.6265 11.699 33.9993 12.598 34.0001 13.5355C34.0016 14.1313 33.8851 14.7215 33.6571 15.272C33.4292 15.8224 33.0944 16.3223 32.6721 16.7425L32.0001 17.4145C31.6241 17.788 31.116 17.9982 30.5861 17.9995H29.0001V18.9995C29.0001 19.53 28.7894 20.0387 28.4143 20.4137C28.0392 20.7888 27.5305 20.9995 27.0001 20.9995H26.0001V22.5855C26.0008 22.8483 25.9494 23.1085 25.8488 23.3513C25.7482 23.594 25.6005 23.8143 25.4141 23.9995L24.7641 24.6495C25.0971 25.9236 25.0808 27.2639 24.7171 28.5295C24.3078 29.9715 23.4774 31.2585 22.3322 32.2257C21.1871 33.1929 19.7793 33.7963 18.2891 33.9585C18.0286 33.9856 17.767 33.9993 17.5051 33.9995ZM17.5051 20.9995C16.4812 20.9985 15.4774 21.2834 14.6067 21.8219C13.7359 22.3605 13.0328 23.1314 12.5764 24.0479C12.12 24.9644 11.9285 25.9901 12.0235 27.0096C12.1184 28.029 12.496 29.0017 13.1138 29.8182C13.7316 30.6346 14.565 31.2625 15.5203 31.631C16.4755 31.9994 17.5146 32.094 18.5207 31.9039C19.5267 31.7139 20.4598 31.2468 21.2148 30.5552C21.9698 29.8637 22.5167 28.9751 22.7941 27.9895C23.1061 26.9061 23.0711 25.7521 22.6941 24.6895C22.6326 24.5121 22.6223 24.3209 22.6644 24.1378C22.7064 23.9548 22.7992 23.7873 22.9321 23.6545L24.0001 22.5855V20.9995C24.0001 20.4691 24.2108 19.9604 24.5859 19.5853C24.961 19.2102 25.4697 18.9995 26.0001 18.9995H27.0001V17.9995C27.0001 17.4691 27.2108 16.9604 27.5859 16.5853C27.961 16.2102 28.4697 15.9995 29.0001 15.9995H30.5861L31.2581 15.3275C31.4941 15.0927 31.6811 14.8134 31.8085 14.5058C31.9358 14.1982 32.001 13.8684 32.0001 13.5355C31.9998 13.1284 31.8381 12.738 31.5503 12.4501C31.2625 12.1621 30.8722 12.0001 30.4651 11.9995C30.132 11.9987 29.802 12.064 29.4942 12.1915C29.1864 12.319 28.907 12.5063 28.6721 12.7425L20.3411 21.0725C20.2081 21.2054 20.0404 21.2981 19.8572 21.34C19.6739 21.382 19.4826 21.3714 19.3051 21.3095C18.7252 21.1053 18.1149 21.0005 17.5001 20.9995H17.5051ZM15.0001 27.9995C15.0001 28.1973 15.0587 28.3907 15.1686 28.5551C15.2785 28.7196 15.4347 28.8477 15.6174 28.9234C15.8001 28.9991 16.0012 29.0189 16.1952 28.9803C16.3892 28.9417 16.5674 28.8465 16.7072 28.7066C16.8471 28.5668 16.9423 28.3886 16.9809 28.1946C17.0195 28.0006 16.9997 27.7996 16.924 27.6168C16.8483 27.4341 16.7201 27.2779 16.5557 27.1681C16.3912 27.0582 16.1979 26.9995 16.0001 26.9995C15.7349 26.9995 15.4805 27.1049 15.293 27.2924C15.1055 27.48 15.0001 27.7343 15.0001 27.9995Z" fill="#91F2CF"/>
</g>
<rect x="1" y="1" width="42" height="42" rx="8" stroke="#91F2CF" stroke-width="2"/>
<defs>
<clipPath id="clip0_0_1329">
<rect width="24" height="24" fill="white" transform="translate(10 10)"/>
</clipPath>
</defs>
</svg>
