<svg width="76" height="51" viewBox="0 0 76 51" fill="none" xmlns="http://www.w3.org/2000/svg">
<mask id="mask0_0_1791" style="mask-type:alpha" maskUnits="userSpaceOnUse" x="0" y="14" width="75" height="25">
<path d="M12.1275 18.824V22.7817H0V18.824H2.30672H3.34211H12.1275ZM3.34211 14.2725H8.57645V31.9835C8.57645 32.47 8.65016 32.8493 8.79765 33.1214C8.94508 33.3853 9.14985 33.5708 9.41201 33.678C9.68234 33.7852 9.99357 33.8387 10.3458 33.8387C10.5916 33.8387 10.8373 33.8182 11.0831 33.7769C11.3288 33.7275 11.918 33.6656 12.0491 33.6409V37.8213C11.574 37.9367 10.3131 38.0563 9.63316 38.081C8.37168 38.1304 7.26585 37.9615 6.3156 37.5739C5.3736 37.1864 4.64046 36.5845 4.1162 35.7682C3.59195 34.9519 3.33392 33.9212 3.34211 32.6762V18.824V17.9232V17.6982V14.2725Z" fill="white"/>
<path d="M3.34215 17.9229C3.30484 18.3124 3.06826 18.8236 2.30676 18.8236H3.34215V17.9229Z" fill="white"/>
<path d="M29.1704 37.8209V18.8236H34.159V22.1753V20.4067C35.1551 19.6327 35.1551 19.6327 36.0529 19.2457C37.1752 18.7619 38.3612 18.5762 39.6391 18.5762C40.9334 18.5762 42.0351 18.9019 42.9443 19.5533C43.8536 20.1964 44.4598 21.0704 44.7629 22.1753H44.9594C45.3444 21.0869 46.0407 20.217 47.0483 19.5656C48.064 18.906 49.2641 18.5762 50.6484 18.5762C52.4096 18.5762 53.839 19.141 54.9367 20.2706C56.0425 21.392 56.5955 22.9834 56.5955 25.0447V37.8209H51.3734V26.0836C51.3734 25.0282 51.0949 24.2367 50.5378 23.7089C49.9808 23.1812 49.2846 22.9174 48.449 22.9174C47.4988 22.9174 46.7575 23.2225 46.2251 23.8327C45.6926 24.4345 45.4264 25.2302 45.4264 26.2196V37.8209H40.3517V25.9723C40.3517 25.0405 40.0856 24.2985 39.5531 23.746C39.0288 23.1936 38.3366 22.9174 37.4765 22.9174C36.895 22.9174 36.3707 23.0658 35.9038 23.3626C35.445 23.6512 35.0806 24.0594 34.8102 24.5871C34.5399 25.1065 34.4048 25.7167 34.4048 26.4175V37.8209H29.1704Z" fill="white"/>
<path d="M62.5326 37.698V18.9603H67.6882V24.2542L66.9616 22.7218C67.5152 21.3983 68.4031 20.3998 69.6259 19.7265C70.8481 19.0299 72.336 18.6816 74.0895 18.6816V23.6969C73.8584 23.6737 73.6508 23.6621 73.4667 23.6621C73.282 23.6389 73.0861 23.6273 72.8785 23.6273C71.4017 23.6273 70.2024 24.0569 69.2799 24.916C68.3803 25.7518 67.9304 27.0637 67.9304 28.8515V37.698H62.5326Z" fill="white"/>
<path d="M18.7517 37.7824C18.4353 37.7824 18.1787 37.5242 18.1787 37.2056V23.1436H22.1227C22.7557 23.1436 23.2689 23.66 23.2689 24.2972V37.7824H18.7517Z" fill="white"/>
<path d="M18.1787 15.513C18.1787 14.8759 18.6918 14.3594 19.3248 14.3594H23.4506V17.3587C23.4506 18.633 22.4244 19.666 21.1585 19.666H18.1787V15.513Z" fill="white"/>
</mask>
<g mask="url(#mask0_0_1791)">
<path d="M0 4.1123H75.6243V46.5651H0V4.1123Z" fill="#070A40"/>
</g>
</svg>
