<svg width="100" height="100" viewBox="0 0 100 100" fill="none" xmlns="http://www.w3.org/2000/svg">
<g clip-path="url(#clip0_0_1242)">
<path d="M61 74C44.702 74.458 15.85 45.574 29.724 29.876C29.774 29.828 31.908 27.968 31.908 27.968C33.2473 26.7299 35.0084 26.0491 36.8322 26.0643C38.6561 26.0796 40.4055 26.7897 41.724 28.05L46.028 32.686C47.2958 34.011 47.9969 35.7781 47.9823 37.6118C47.9678 39.4456 47.2387 41.2014 45.95 42.506L45.174 43.294C47.485 48.4118 51.5739 52.5177 56.682 54.85L57.504 54.05C58.8372 52.7802 60.6078 52.0719 62.449 52.0719C64.2902 52.0719 66.0608 52.7802 67.394 54.05L71.868 58.2C73.1932 59.4946 73.9539 61.2599 73.9846 63.1123C74.0153 64.9646 73.3136 66.7542 72.032 68.092C72.032 68.092 70.172 70.224 70.124 70.274C68.9255 71.4681 67.5018 72.4123 65.9356 73.0519C64.3694 73.6915 62.6917 74.0138 61 74ZM33.9 34.2C24.182 46.236 55.288 75.546 65.81 66.1C65.81 66.1 67.658 63.982 67.708 63.934C67.8955 63.7465 68.0008 63.4922 68.0008 63.227C68.0008 62.9618 67.8955 62.7075 67.708 62.52L63.232 58.372C62.632 57.872 62.294 57.866 61.738 58.292L59.466 60.528C59.0562 60.9312 58.5391 61.2081 57.9764 61.3258C57.4137 61.4435 56.829 61.3971 56.292 61.192C52.3012 59.707 48.6764 57.3813 45.6632 54.3726C42.6501 51.3639 40.319 47.7425 38.828 43.754C38.611 43.2126 38.5565 42.6196 38.6712 42.0478C38.786 41.4759 39.0649 40.9498 39.474 40.534L41.69 38.282C41.7909 38.1924 41.872 38.0826 41.9281 37.9599C41.9842 37.8371 42.014 37.7039 42.0157 37.569C42.0174 37.434 41.9909 37.3002 41.9379 37.176C41.8849 37.0519 41.8066 36.9402 41.708 36.848L37.4 32.212C37.2094 32.0527 36.9651 31.9723 36.7171 31.9871C36.4691 32.002 36.2362 32.1111 36.066 32.292C36.018 32.342 33.9 34.2 33.9 34.2ZM74 45C73.9942 39.9627 71.9905 35.1333 68.4286 31.5714C64.8666 28.0095 60.0373 26.0058 55 26C54.2043 26 53.4413 26.3161 52.8787 26.8787C52.3161 27.4413 52 28.2044 52 29C52 29.7957 52.3161 30.5587 52.8787 31.1213C53.4413 31.6839 54.2043 32 55 32C58.4465 32.0042 61.7506 33.3752 64.1877 35.8123C66.6247 38.2493 67.9957 41.5535 68 45C68 45.7957 68.3161 46.5587 68.8787 47.1213C69.4413 47.6839 70.2043 48 71 48C71.7956 48 72.5587 47.6839 73.1213 47.1213C73.6839 46.5587 74 45.7957 74 45ZM64 45C63.9973 42.6139 63.0483 40.3262 61.361 38.639C59.6738 36.9517 57.3861 36.0026 55 36C54.2043 36 53.4413 36.3161 52.8787 36.8787C52.3161 37.4413 52 38.2044 52 39C52 39.7957 52.3161 40.5587 52.8787 41.1213C53.4413 41.6839 54.2043 42 55 42C55.7956 42 56.5587 42.3161 57.1213 42.8787C57.6839 43.4413 58 44.2044 58 45C58 45.7957 58.3161 46.5587 58.8787 47.1213C59.4413 47.6839 60.2043 48 61 48C61.7956 48 62.5587 47.6839 63.1213 47.1213C63.6839 46.5587 64 45.7957 64 45Z" fill="#39E8A9"/>
</g>
<rect x="2" y="2" width="96" height="96" rx="6" stroke="#39E8A9" stroke-width="4"/>
<defs>
<clipPath id="clip0_0_1242">
<rect width="48" height="48" fill="white" transform="translate(26 26)"/>
</clipPath>
</defs>
</svg>
