<svg width="17" height="15" viewBox="0 0 17 15" fill="none" xmlns="http://www.w3.org/2000/svg">
<path d="M11.3503 0.505001V0.501953H12.1439L12.4338 0.559862C12.6271 0.597457 12.8026 0.646725 12.9603 0.707682C13.118 0.768639 13.2706 0.83976 13.4181 0.92103C13.5656 1.0023 13.6994 1.08511 13.8195 1.16943C13.9385 1.25274 14.0453 1.34113 14.1399 1.43459C14.2335 1.52907 14.3795 1.55346 14.5779 1.50774C14.7763 1.46202 14.9899 1.39852 15.2188 1.31725C15.4477 1.23598 15.6741 1.14454 15.8979 1.04294C16.1217 0.941344 16.2581 0.876837 16.3069 0.849406C16.3547 0.82097 16.3801 0.805731 16.3832 0.803689L16.3862 0.799117L16.4015 0.791497L16.4167 0.783878L16.432 0.776258L16.4473 0.768639L16.4503 0.764067L16.4549 0.761019L16.4595 0.757971L16.4625 0.7534L16.4778 0.748828L16.493 0.74578L16.49 0.768639L16.4854 0.791497L16.4778 0.814356L16.4702 0.837215L16.4625 0.852454L16.4549 0.867693L16.4473 0.890552C16.4422 0.905791 16.4371 0.926105 16.432 0.951509C16.4269 0.976912 16.3786 1.0785 16.287 1.25629C16.1955 1.43409 16.081 1.61441 15.9437 1.79728C15.8063 1.98015 15.6832 2.11831 15.5744 2.21179C15.4645 2.30627 15.3918 2.3723 15.3562 2.4099C15.3206 2.4485 15.2773 2.48405 15.2264 2.51657L15.1501 2.56686L15.1349 2.57448L15.1196 2.5821L15.1166 2.58667L15.112 2.58972L15.1074 2.59277L15.1044 2.59734L15.0891 2.60496L15.0738 2.61258L15.0708 2.61715L15.0662 2.6202L15.0616 2.62325L15.0586 2.62782L15.0555 2.63239L15.051 2.63544L15.0464 2.63849L15.0433 2.64306H15.1196L15.5469 2.55162C15.8318 2.49067 16.1039 2.41701 16.3633 2.33065L16.7754 2.1935L16.8211 2.17826L16.844 2.17064L16.8593 2.16302L16.8746 2.1554L16.8898 2.14778L16.9051 2.14016L16.9356 2.13559L16.9661 2.13254V2.16302L16.9585 2.16607L16.9509 2.17064L16.9478 2.17521L16.9432 2.17826L16.9386 2.18131L16.9356 2.18588L16.9326 2.19045L16.928 2.1935L16.9234 2.19655L16.9203 2.20112L16.9173 2.20569L16.9127 2.20874L16.9051 2.22398L16.8974 2.23922L16.8929 2.24227C16.8908 2.24531 16.8262 2.33166 16.6991 2.50133C16.5719 2.67201 16.5032 2.75836 16.493 2.7604C16.4829 2.76345 16.4686 2.77869 16.4503 2.80612C16.433 2.83455 16.3252 2.94784 16.1268 3.14595C15.9284 3.34406 15.7341 3.52032 15.5439 3.67475C15.3526 3.83019 15.256 4.02118 15.2539 4.24774C15.2509 4.47328 15.2392 4.72829 15.2188 5.01275C15.1985 5.29722 15.1603 5.60453 15.1044 5.93472C15.0484 6.26491 14.9619 6.63827 14.8449 7.0548C14.728 7.47133 14.5855 7.87771 14.4176 8.27393C14.2498 8.67015 14.0743 9.02573 13.8912 9.34067C13.708 9.65562 13.5402 9.92231 13.3876 10.1407C13.235 10.3592 13.0798 10.5649 12.9221 10.7579C12.7645 10.951 12.5651 11.1684 12.324 11.4102C12.0818 11.6509 11.9496 11.783 11.9272 11.8064C11.9038 11.8287 11.8041 11.912 11.6281 12.0563C11.4531 12.2016 11.2649 12.3468 11.0634 12.4921C10.863 12.6364 10.6789 12.7568 10.511 12.8533C10.3432 12.9498 10.1407 13.06 9.90366 13.184C9.66765 13.309 9.41228 13.4248 9.1376 13.5314C8.86291 13.6381 8.57297 13.7372 8.26776 13.8286C7.96256 13.92 7.66753 13.9912 7.38267 14.042C7.09782 14.0928 6.77481 14.1359 6.41364 14.1715L5.8719 14.2248V14.2324H4.87998V14.2248L4.75027 14.2172C4.66381 14.2121 4.59259 14.207 4.53663 14.202C4.48068 14.1969 4.26957 14.1689 3.90333 14.1182C3.53708 14.0674 3.24968 14.0166 3.04112 13.9658C2.83258 13.915 2.52227 13.8184 2.11025 13.6762C1.69822 13.534 1.34571 13.3902 1.05271 13.245C0.760735 13.1007 0.577612 13.0092 0.50334 12.9706C0.430091 12.9331 0.347686 12.8863 0.256124 12.8304L0.118782 12.7466L0.115745 12.7421L0.111152 12.739L0.106574 12.736L0.103522 12.7314L0.0882613 12.7238L0.073001 12.7162L0.0699642 12.7116L0.0653709 12.7085L0.0607928 12.7055L0.0577407 12.7009L0.0547039 12.6963L0.0501106 12.6933H0.0424805V12.6628L0.0577407 12.6659L0.073001 12.6704L0.141672 12.6781C0.187453 12.6831 0.312084 12.6907 0.515549 12.7009C0.719029 12.7111 0.935206 12.7111 1.16411 12.7009C1.39301 12.6907 1.62701 12.6679 1.86608 12.6323C2.10516 12.5968 2.38748 12.5358 2.71303 12.4495C3.03859 12.3631 3.33769 12.2605 3.61035 12.1416C3.88198 12.0218 4.07526 11.9324 4.19024 11.8734C4.30417 11.8155 4.47814 11.7078 4.71212 11.5504L5.06311 11.3141L5.06616 11.3096L5.07074 11.3065L5.07533 11.3035L5.07837 11.2989L5.08142 11.2943L5.086 11.2913L5.09059 11.2882L5.09363 11.2837L5.10889 11.2791L5.12415 11.276L5.1272 11.2608L5.13178 11.2456L5.13637 11.2425L5.13941 11.238L5.01733 11.2303C4.93594 11.2253 4.85709 11.2202 4.78079 11.2151C4.70449 11.21 4.58496 11.1872 4.42218 11.1465C4.25941 11.1059 4.08392 11.0449 3.8957 10.9636C3.70749 10.8824 3.52437 10.7859 3.34633 10.6741C3.1683 10.5624 3.0396 10.4694 2.96024 10.3952C2.88191 10.3221 2.78017 10.2185 2.65504 10.0843C2.53093 9.94924 2.42308 9.81054 2.33152 9.66832C2.23996 9.52609 2.15247 9.36199 2.06906 9.17609L1.94238 8.89874L1.93475 8.87588L1.92712 8.85302L1.92254 8.83778L1.91949 8.82254L1.94238 8.82559L1.96527 8.83016L2.13314 8.85302C2.24506 8.86826 2.42055 8.87333 2.65962 8.86826C2.8987 8.86319 3.06401 8.85302 3.15557 8.83778C3.24714 8.82254 3.3031 8.81238 3.32344 8.8073L3.35396 8.79968L3.39211 8.79206L3.43026 8.78444L3.43331 8.77987L3.43789 8.77682L3.44248 8.77378L3.44552 8.76921L3.415 8.76159L3.38448 8.75397L3.35396 8.74635L3.32344 8.73873L3.29292 8.73111C3.27257 8.72603 3.23697 8.71587 3.18609 8.70063C3.13523 8.68539 2.99789 8.62951 2.77407 8.533C2.55026 8.43649 2.37222 8.34251 2.23996 8.25107C2.10737 8.15937 1.98095 8.05909 1.8615 7.95086C1.74247 7.84114 1.61175 7.69992 1.46932 7.52721C1.32689 7.35451 1.19973 7.15385 1.08781 6.92527C0.975905 6.69668 0.891974 6.47825 0.836014 6.26998C0.78028 6.06293 0.743509 5.85125 0.726156 5.63755L0.698672 5.31753L0.713932 5.32058L0.729192 5.32515L0.744453 5.33277L0.759713 5.34039L0.774973 5.34801L0.790233 5.35563L1.02677 5.4623C1.18447 5.53343 1.3803 5.59438 1.61429 5.64517C1.84829 5.69597 1.98816 5.72392 2.03394 5.72899L2.10262 5.73661H2.23996L2.23692 5.73204L2.23233 5.72899L2.22775 5.72594L2.2247 5.72137L2.22166 5.7168L2.21707 5.71375L2.21249 5.7107L2.20944 5.70613L2.19418 5.69851L2.17892 5.69089L2.17588 5.68632L2.17129 5.68327L2.16671 5.68022L2.16366 5.67565L2.1484 5.66803L2.13314 5.66041L2.1301 5.65584C2.12705 5.6538 2.0833 5.62129 1.99885 5.55831C1.91542 5.49431 1.82793 5.41151 1.73637 5.30991C1.64481 5.20831 1.55325 5.10164 1.46169 4.98989C1.36995 4.87789 1.28825 4.75805 1.21752 4.63177C1.14632 4.50478 1.07102 4.34323 0.991669 4.14716C0.913338 3.9521 0.853823 3.75552 0.813124 3.55741C0.77244 3.3593 0.74955 3.16373 0.744453 2.9707C0.739371 2.77766 0.744453 2.61258 0.759713 2.47543C0.774973 2.33827 0.805494 2.18334 0.851274 2.01063C0.897055 1.83793 0.963193 1.65506 1.04966 1.46202L1.17937 1.17248L1.187 1.14962L1.19463 1.12676L1.19922 1.12371L1.20226 1.11914L1.20531 1.11457L1.20989 1.11152L1.21448 1.11457L1.21752 1.11914L1.22057 1.12371L1.22515 1.12676L1.22974 1.12981L1.23278 1.13438L1.23583 1.13895L1.24041 1.142L1.24804 1.15724L1.25567 1.17248L1.26026 1.17552L1.2633 1.1801L1.46932 1.40868C1.60666 1.56108 1.76944 1.73125 1.95764 1.9192C2.14586 2.10714 2.25014 2.20467 2.27048 2.21179C2.29084 2.21991 2.31626 2.24327 2.34678 2.28189C2.3773 2.31948 2.47904 2.40939 2.65199 2.55162C2.82495 2.69385 3.0513 2.85895 3.33107 3.0469C3.61085 3.23484 3.92114 3.42026 4.26194 3.60313C4.60277 3.786 4.96901 3.95108 5.36068 4.0984C5.75237 4.24572 6.02705 4.34223 6.18474 4.38794C6.34244 4.43366 6.61202 4.49207 6.99353 4.56319C7.37504 4.63431 7.66245 4.68003 7.85574 4.70035C8.04904 4.72066 8.1813 4.73235 8.2525 4.7354L8.35932 4.73844L8.35629 4.71558L8.35169 4.69273L8.32117 4.50224C8.30083 4.37525 8.29065 4.19745 8.29065 3.96887C8.29065 3.74028 8.30846 3.52947 8.34406 3.33644C8.37968 3.1434 8.43309 2.94784 8.5043 2.74973C8.57552 2.55162 8.64521 2.39262 8.71336 2.27275C8.78255 2.15388 8.87309 2.01825 8.985 1.86586C9.09691 1.71347 9.24189 1.556 9.41991 1.39344C9.59795 1.23089 9.80142 1.08612 10.0303 0.959128C10.2592 0.83214 10.4703 0.735615 10.6636 0.669584C10.8569 0.603553 11.0197 0.560365 11.152 0.540051C11.2842 0.519737 11.3503 0.508049 11.3503 0.505001V0.505001Z" fill="#090F1D"/>
</svg>
