<svg width="44" height="44" viewBox="0 0 44 44" fill="none" xmlns="http://www.w3.org/2000/svg">
<g clip-path="url(#clip0_0_1336)">
<path d="M33.7068 26.324C33.5193 26.1366 33.265 26.0312 32.9998 26.0312C32.7347 26.0312 32.4804 26.1366 32.2928 26.324L26.6658 31.952L23.9778 29.299C23.7922 29.1087 23.5385 29 23.2727 28.9967C23.0069 28.9934 22.7506 29.0959 22.5603 29.2815C22.37 29.4672 22.2613 29.7208 22.258 29.9867C22.2547 30.2525 22.3572 30.5087 22.5428 30.699L25.2868 33.399C25.459 33.5846 25.6668 33.7334 25.898 33.8365C26.1291 33.9397 26.3788 33.9949 26.6318 33.999H26.6648C26.9129 33.9999 27.1586 33.9514 27.3878 33.8565C27.617 33.7615 27.825 33.622 27.9998 33.446L33.7068 27.738C33.8943 27.5505 33.9996 27.2962 33.9996 27.031C33.9996 26.7659 33.8943 26.5116 33.7068 26.324Z" fill="#91F2CF"/>
<path d="M21.09 31.9582C19.159 31.7817 17.321 31.0477 15.7997 29.8454C14.2784 28.6432 13.1395 27.0246 12.5215 25.1867C11.9035 23.3488 11.8332 21.3709 12.3191 19.4938C12.8049 17.6167 13.8261 15.9213 15.2582 14.614C16.6902 13.3068 18.4715 12.4441 20.385 12.1309C22.2986 11.8178 24.2619 12.0677 26.036 12.8503C27.81 13.6328 29.3183 14.9143 30.3772 16.5387C31.4361 18.163 31.9999 20.0602 32 21.9992C32 22.3062 31.985 22.6102 31.959 22.9102C31.9468 23.0413 31.9605 23.1735 31.9995 23.2993C32.0385 23.4251 32.102 23.5419 32.1863 23.6431C32.2706 23.7443 32.374 23.8278 32.4906 23.8889C32.6073 23.95 32.7348 23.9875 32.866 23.9992C32.9971 24.0123 33.1295 23.9992 33.2554 23.9605C33.3813 23.9219 33.4982 23.8584 33.5993 23.7739C33.7004 23.6894 33.7836 23.5856 33.844 23.4685C33.9043 23.3514 33.9407 23.2235 33.951 23.0922C33.983 22.7292 34 22.3662 34 21.9992C33.9999 19.6723 33.3233 17.3956 32.0525 15.4463C30.7817 13.4971 28.9717 11.9593 26.8427 11.0203C24.7137 10.0813 22.3576 9.78148 20.0613 10.1574C17.765 10.5333 15.6275 11.5688 13.909 13.1377C12.1906 14.7066 10.9654 16.7412 10.3826 18.994C9.7997 21.2467 9.88437 23.6202 10.6262 25.8257C11.3681 28.0312 12.7352 29.9733 14.5611 31.4158C16.3869 32.8583 18.5927 33.7388 20.91 33.9502H21.001C21.2662 33.962 21.5253 33.8679 21.7211 33.6887C21.917 33.5095 22.0337 33.2599 22.0455 32.9947C22.0573 32.7294 21.9633 32.4704 21.7841 32.2745C21.6049 32.0786 21.3552 31.962 21.09 31.9502V31.9582Z" fill="#91F2CF"/>
<path d="M21.0002 17V21.586L18.2932 24.293C18.1977 24.3852 18.1215 24.4956 18.0691 24.6176C18.0167 24.7396 17.9891 24.8708 17.988 25.0036C17.9868 25.1364 18.0121 25.268 18.0624 25.3909C18.1127 25.5138 18.1869 25.6255 18.2808 25.7194C18.3747 25.8133 18.4864 25.8875 18.6092 25.9378C18.7321 25.9881 18.8638 26.0134 18.9966 26.0122C19.1294 26.0111 19.2606 25.9835 19.3826 25.9311C19.5046 25.8787 19.615 25.8025 19.7072 25.707L22.7072 22.707C22.8947 22.5195 23.0001 22.2652 23.0002 22V17C23.0002 16.7348 22.8948 16.4804 22.7073 16.2929C22.5198 16.1054 22.2654 16 22.0002 16C21.735 16 21.4806 16.1054 21.2931 16.2929C21.1056 16.4804 21.0002 16.7348 21.0002 17Z" fill="#91F2CF"/>
</g>
<rect x="1" y="1" width="42" height="42" rx="8" stroke="#91F2CF" stroke-width="2"/>
<defs>
<clipPath id="clip0_0_1336">
<rect width="24" height="24" fill="white" transform="translate(10 10)"/>
</clipPath>
</defs>
</svg>
