<svg width="19" height="14" viewBox="0 0 19 14" fill="none" xmlns="http://www.w3.org/2000/svg">
<path d="M10.0129 13.9295L6.19362 13.8581C4.95703 13.8332 3.71735 13.8829 2.505 13.6252C0.660731 13.2401 0.530077 11.3523 0.393361 9.76877C0.20498 7.54252 0.277908 5.27587 0.633406 3.06821C0.834097 1.82947 1.6239 1.09031 2.84529 1.00988C6.96841 0.71797 11.1189 0.752565 15.2329 0.888751C15.6674 0.901235 16.1049 0.969471 16.5333 1.04714C18.6481 1.42597 18.6997 3.5653 18.8368 5.36621C18.9735 7.18571 18.9158 9.01455 18.6545 10.8217C18.4448 12.3179 18.0437 13.5726 16.351 13.6938C14.2301 13.8522 12.1579 13.9797 10.0311 13.9391C10.0312 13.9295 10.019 13.9295 10.0129 13.9295ZM7.76754 10.1414C9.36579 9.20363 10.9335 8.28149 12.5227 7.35002C10.9214 6.41225 9.35665 5.49011 7.76754 4.55863V10.1414Z" fill="#090F1D"/>
</svg>
