<svg width="24" height="18" viewBox="0 0 24 18" fill="none" xmlns="http://www.w3.org/2000/svg">
<path d="M23.63 1.33333C23.168 0.539333 22.318 0 21.3333 0H12V1.33333H23.63ZM0 13.3333H24V14.6667H0V13.3333ZM12 8H24V9.33333H12V8ZM12 5.33333H24V6.66667H12V5.33333ZM0 10.6667H24V12H0V10.6667ZM2.66667 17.3333H21.3333C22.318 17.3333 23.168 16.794 23.63 16H0.37C0.832 16.794 1.682 17.3333 2.66667 17.3333ZM12 2.66667H24V4H12V2.66667Z" fill="#B22334"/>
<path d="M0.0453333 15.1194C0.0566667 15.1814 0.0693333 15.2434 0.0846667 15.3041C0.102 15.3714 0.123333 15.4361 0.146 15.5014C0.205333 15.6741 0.277333 15.8408 0.368 15.9968L0.37 16.0001H23.63L23.6313 15.9974C23.7213 15.8421 23.7933 15.6754 23.8527 15.5034C23.8753 15.4374 23.8973 15.3714 23.9147 15.3028C23.93 15.2428 23.9427 15.1814 23.954 15.1194C23.9813 14.9728 24 14.8221 24 14.6668H0C0 14.8221 0.0186667 14.9721 0.0453333 15.1194ZM0 12.0001H24V13.3334H0V12.0001ZM0 9.33343V10.6668H24V9.33343H12H0ZM12 6.66677H24V8.0001H12V6.66677ZM12 4.0001H24V5.33343H12V4.0001ZM0 2.66677C0 2.51144 0.02 2.3621 0.0453333 2.2141C0.0186667 2.36144 0 2.51144 0 2.66677ZM0.0853333 2.02943C0.102 1.96143 0.125333 1.89677 0.146667 1.83144C0.124 1.89677 0.102667 1.9621 0.0853333 2.02943ZM12 2.66677H24C24 2.51144 23.9813 2.36077 23.954 2.21343C23.9427 2.1521 23.9307 2.09077 23.9147 2.03077C23.8967 1.9621 23.8753 1.89543 23.852 1.82943C23.7927 1.65744 23.7207 1.49144 23.6307 1.3361C23.6313 1.33544 23.6307 1.3341 23.63 1.33344H12V2.66677Z" fill="#EEEEEE"/>
<path d="M12 0H2.66667C1.194 0 0 1.194 0 2.66667V9.33333H12V0Z" fill="#3C3B6E"/>
<path d="M1.33398 1.81743L1.74598 2.11677L1.58865 2.6001L1.99998 2.30143L2.41198 2.6001L2.25465 2.11677L2.66665 1.81743H2.15732L1.99998 1.33344L1.84332 1.81743H1.33398ZM2.66732 3.15077L3.07932 3.4501L2.92198 3.93343L3.33332 3.63477L3.74532 3.93343L3.58798 3.4501L3.99998 3.15077H3.49065L3.33332 2.66677L3.17665 3.15077H2.66732ZM5.33398 3.15077L5.74598 3.4501L5.58865 3.93343L5.99998 3.63477L6.41198 3.93343L6.25465 3.4501L6.66665 3.15077H6.15732L5.99998 2.66677L5.84332 3.15077H5.33398ZM8.00065 3.15077L8.41265 3.4501L8.25532 3.93343L8.66665 3.63477L9.07865 3.93343L8.92132 3.4501L9.33332 3.15077H8.82398L8.66665 2.66677L8.50998 3.15077H8.00065ZM2.66732 5.81743L3.07932 6.11677L2.92198 6.6001L3.33332 6.30143L3.74532 6.6001L3.58798 6.11677L3.99998 5.81743H3.49065L3.33332 5.33343L3.17665 5.81743H2.66732ZM5.33398 5.81743L5.74598 6.11677L5.58865 6.6001L5.99998 6.30143L6.41198 6.6001L6.25465 6.11677L6.66665 5.81743H6.15732L5.99998 5.33343L5.84332 5.81743H5.33398ZM8.00065 5.81743L8.41265 6.11677L8.25532 6.6001L8.66665 6.30143L9.07865 6.6001L8.92132 6.11677L9.33332 5.81743H8.82398L8.66665 5.33343L8.50998 5.81743H8.00065ZM4.00065 1.81743L4.41265 2.11677L4.25532 2.6001L4.66665 2.30143L5.07865 2.6001L4.92132 2.11677L5.33332 1.81743H4.82398L4.66665 1.33344L4.50998 1.81743H4.00065ZM6.66732 1.81743L7.07932 2.11677L6.92198 2.6001L7.33332 2.30143L7.74532 2.6001L7.58798 2.11677L7.99998 1.81743H7.49065L7.33332 1.33344L7.17665 1.81743H6.66732ZM9.33398 1.81743L9.74598 2.11677L9.58865 2.6001L9.99998 2.30143L10.412 2.6001L10.2547 2.11677L10.6667 1.81743H10.1573L9.99998 1.33344L9.84332 1.81743H9.33398ZM1.33398 4.4841L1.74598 4.78343L1.58865 5.26677L1.99998 4.9681L2.41198 5.26677L2.25465 4.78343L2.66665 4.4841H2.15732L1.99998 4.0001L1.84332 4.4841H1.33398ZM4.25532 5.26677L4.66665 4.9681L5.07865 5.26677L4.92132 4.78343L5.33332 4.4841H4.82398L4.66665 4.0001L4.50998 4.4841H4.00065L4.41265 4.78343L4.25532 5.26677ZM6.66732 4.4841L7.07932 4.78343L6.92198 5.26677L7.33332 4.9681L7.74532 5.26677L7.58798 4.78343L7.99998 4.4841H7.49065L7.33332 4.0001L7.17665 4.4841H6.66732ZM9.33398 4.4841L9.74598 4.78343L9.58865 5.26677L9.99998 4.9681L10.412 5.26677L10.2547 4.78343L10.6667 4.4841H10.1573L9.99998 4.0001L9.84332 4.4841H9.33398ZM1.33398 7.15077L1.74598 7.4501L1.58865 7.93343L1.99998 7.63477L2.41198 7.93343L2.25465 7.4501L2.66665 7.15077H2.15732L1.99998 6.66677L1.84332 7.15077H1.33398ZM4.25532 7.93343L4.66665 7.63477L5.07865 7.93343L4.92132 7.4501L5.33332 7.15077H4.82398L4.66665 6.66677L4.50998 7.15077H4.00065L4.41265 7.4501L4.25532 7.93343ZM6.66732 7.15077L7.07932 7.4501L6.92198 7.93343L7.33332 7.63477L7.74532 7.93343L7.58798 7.4501L7.99998 7.15077H7.49065L7.33332 6.66677L7.17665 7.15077H6.66732ZM9.33398 7.15077L9.74598 7.4501L9.58865 7.93343L9.99998 7.63477L10.412 7.93343L10.2547 7.4501L10.6667 7.15077H10.1573L9.99998 6.66677L9.84332 7.15077H9.33398Z" fill="white"/>
</svg>
