<svg width="16" height="16" viewBox="0 0 16 16" fill="none" xmlns="http://www.w3.org/2000/svg">
<path fill-rule="evenodd" clip-rule="evenodd" d="M0.0151367 8.36732C0.0151367 5.36273 0.0151367 3.86044 0.731104 2.77838C1.05082 2.29519 1.46463 1.88138 1.94782 1.56167C3.02988 0.845703 4.53217 0.845703 7.53675 0.845703C10.5413 0.845703 12.0436 0.845703 13.1257 1.56167C13.6089 1.88138 14.0227 2.29519 14.3424 2.77838C15.0584 3.86044 15.0584 5.36273 15.0584 8.36732C15.0584 11.3719 15.0584 12.8742 14.3424 13.9563C14.0227 14.4394 13.6089 14.8533 13.1257 15.173C12.0436 15.8889 10.5413 15.8889 7.53675 15.8889C4.53217 15.8889 3.02988 15.8889 1.94782 15.173C1.46463 14.8533 1.05082 14.4394 0.731104 13.9563C0.0151367 12.8742 0.0151367 11.3719 0.0151367 8.36732ZM11.4308 8.36755C11.4308 10.5182 9.68735 12.2616 7.53673 12.2616C5.38612 12.2616 3.6427 10.5182 3.6427 8.36755C3.6427 6.21694 5.38612 4.47352 7.53673 4.47352C9.68735 4.47352 11.4308 6.21694 11.4308 8.36755ZM7.53673 10.9441C8.95974 10.9441 10.1133 9.79055 10.1133 8.36755C10.1133 6.94455 8.95974 5.79098 7.53673 5.79098C6.11373 5.79098 4.96016 6.94455 4.96016 8.36755C4.96016 9.79055 6.11373 10.9441 7.53673 10.9441ZM11.5845 5.19301C12.0898 5.19301 12.4994 4.78336 12.4994 4.27803C12.4994 3.7727 12.0898 3.36305 11.5845 3.36305C11.0791 3.36305 10.6695 3.7727 10.6695 4.27803C10.6695 4.78336 11.0791 5.19301 11.5845 5.19301Z" fill="#090F1D"/>
</svg>
