<svg width="34" height="34" viewBox="0 0 34 34" fill="none" xmlns="http://www.w3.org/2000/svg">
<path d="M16.0621 1.53451C16.3843 0.663888 17.6157 0.663888 17.9379 1.53451L21.7021 11.7071C21.8033 11.9808 22.0192 12.1967 22.2929 12.2979L32.4655 16.0621C33.3361 16.3843 33.3361 17.6157 32.4655 17.9379L22.2929 21.7021C22.0192 21.8033 21.8033 22.0192 21.7021 22.2929L17.9379 32.4655C17.6157 33.3361 16.3843 33.3361 16.0621 32.4655L12.2979 22.2929C12.1967 22.0192 11.9808 21.8033 11.7071 21.7021L1.53451 17.9379C0.663888 17.6157 0.663888 16.3843 1.53451 16.0621L11.7071 12.2979C11.9808 12.1967 12.1967 11.9808 12.2979 11.7071L16.0621 1.53451Z" fill="#91F2CF"/>
</svg>
